<?xml version="1.0" encoding="UTF-8" standalone="no"?>
<!-- Created with Inkscape (http://www.inkscape.org/) -->

<svg
   xmlns:dc="http://purl.org/dc/elements/1.1/"
   xmlns:cc="http://creativecommons.org/ns#"
   xmlns:rdf="http://www.w3.org/1999/02/22-rdf-syntax-ns#"
   xmlns:svg="http://www.w3.org/2000/svg"
   xmlns="http://www.w3.org/2000/svg"
   xmlns:sodipodi="http://sodipodi.sourceforge.net/DTD/sodipodi-0.dtd"
   xmlns:inkscape="http://www.inkscape.org/namespaces/inkscape"
   id="svg2"
   version="1.1"
   inkscape:version="0.92.1 r15371"
   xml:space="preserve"
   width="27.975603"
   height="24.65188"
   viewBox="0 0 26.227128 23.111138"
   sodipodi:docname="quest_icon_v2.svg"><metadata
     id="metadata8"><rdf:RDF><cc:Work
         rdf:about=""><dc:format>image/svg+xml</dc:format><dc:type
           rdf:resource="http://purl.org/dc/dcmitype/StillImage" /><dc:title></dc:title></cc:Work></rdf:RDF></metadata><defs
     id="defs6"><linearGradient
       x1="0"
       y1="0"
       x2="1"
       y2="0"
       gradientUnits="userSpaceOnUse"
       gradientTransform="matrix(0,-24.000488,-24.000488,0,14,24)"
       spreadMethod="pad"
       id="linearGradient24"><stop
         style="stop-opacity:1;stop-color:#90c50e"
         offset="0"
         id="stop26" /><stop
         style="stop-opacity:1;stop-color:#70a034"
         offset="1"
         id="stop28" /></linearGradient><linearGradient
       x1="0"
       y1="0"
       x2="1"
       y2="0"
       gradientUnits="userSpaceOnUse"
       gradientTransform="matrix(0,-22.000488,-22.000488,0,14,23)"
       spreadMethod="pad"
       id="linearGradient44"><stop
         style="stop-opacity:1;stop-color:#d9f991"
         offset="0"
         id="stop46" /><stop
         style="stop-opacity:1;stop-color:#d9f991"
         offset="0.54933843"
         id="stop48" /><stop
         style="stop-opacity:1;stop-color:#a8d73d"
         offset="1"
         id="stop50" /></linearGradient><linearGradient
       x1="0"
       y1="0"
       x2="1"
       y2="0"
       gradientUnits="userSpaceOnUse"
       gradientTransform="matrix(0,-20.000488,-20.000488,0,14,22)"
       spreadMethod="pad"
       id="linearGradient66"><stop
         style="stop-opacity:1;stop-color:#b3e810"
         offset="0"
         id="stop68" /><stop
         style="stop-opacity:1;stop-color:#90c60d"
         offset="1"
         id="stop70" /></linearGradient><linearGradient
       x1="0"
       y1="0"
       x2="1"
       y2="0"
       gradientUnits="userSpaceOnUse"
       gradientTransform="matrix(0,-5,-5,0,14,20)"
       spreadMethod="pad"
       id="linearGradient86"><stop
         style="stop-opacity:1;stop-color:#90c50e"
         offset="0"
         id="stop88" /><stop
         style="stop-opacity:1;stop-color:#70a034"
         offset="1"
         id="stop90" /></linearGradient><linearGradient
       x1="0"
       y1="0"
       x2="1"
       y2="0"
       gradientUnits="userSpaceOnUse"
       gradientTransform="matrix(0,-24.000488,-24.000488,0,4.4995117,24)"
       spreadMethod="pad"
       id="linearGradient106"><stop
         style="stop-opacity:1;stop-color:#656565"
         offset="0"
         id="stop108" /><stop
         style="stop-opacity:1;stop-color:#1b1b1b"
         offset="0.73696312"
         id="stop110" /><stop
         style="stop-opacity:1;stop-color:#1b1b1b"
         offset="1"
         id="stop112" /></linearGradient><linearGradient
       x1="0"
       y1="0"
       x2="1"
       y2="0"
       gradientUnits="userSpaceOnUse"
       gradientTransform="matrix(0,-22.000488,-22.000488,0,4.4995117,23)"
       spreadMethod="pad"
       id="linearGradient128"><stop
         style="stop-opacity:1;stop-color:#8e8e8e"
         offset="0"
         id="stop130" /><stop
         style="stop-opacity:1;stop-color:#414141"
         offset="0.73696312"
         id="stop132" /><stop
         style="stop-opacity:1;stop-color:#414141"
         offset="1"
         id="stop134" /></linearGradient><linearGradient
       x1="0"
       y1="0"
       x2="1"
       y2="0"
       gradientUnits="userSpaceOnUse"
       gradientTransform="matrix(0,-20.000488,-20.000488,0,4.4995117,22)"
       spreadMethod="pad"
       id="linearGradient150"><stop
         style="stop-opacity:1;stop-color:#7c7c7c"
         offset="0"
         id="stop152" /><stop
         style="stop-opacity:1;stop-color:#3b3b3b"
         offset="0.73696312"
         id="stop154" /><stop
         style="stop-opacity:1;stop-color:#3b3b3b"
         offset="1"
         id="stop156" /></linearGradient><linearGradient
       x1="0"
       y1="0"
       x2="1"
       y2="0"
       gradientUnits="userSpaceOnUse"
       gradientTransform="matrix(-1.53e-5,274.85498,274.85498,1.53e-5,324.00049,102.57227)"
       spreadMethod="pad"
       id="linearGradient24-6"><stop
         style="stop-opacity:1;stop-color:#76d3f4"
         offset="0"
         id="stop26-5" /><stop
         style="stop-opacity:1;stop-color:#4ec3e7"
         offset="1"
         id="stop28-0" /></linearGradient><clipPath
       clipPathUnits="userSpaceOnUse"
       id="clipPath36"><path
         d="M 0,480 H 648 V 0 H 0 Z"
         id="path38"
         inkscape:connector-curvature="0" /></clipPath><linearGradient
       x1="0"
       y1="0"
       x2="1"
       y2="0"
       gradientUnits="userSpaceOnUse"
       gradientTransform="matrix(0,-169.98193,-169.98193,0,324,324.99023)"
       spreadMethod="pad"
       id="linearGradient60"><stop
         style="stop-opacity:1;stop-color:#d2f0f8"
         offset="0"
         id="stop62" /><stop
         style="stop-opacity:1;stop-color:#81d6ee"
         offset="1"
         id="stop64" /></linearGradient><clipPath
       clipPathUnits="userSpaceOnUse"
       id="clipPath72"><path
         d="M 0,480 H 648 V 0 H 0 Z"
         id="path74"
         inkscape:connector-curvature="0" /></clipPath><clipPath
       clipPathUnits="userSpaceOnUse"
       id="clipPath80"><path
         d="M 186.583,377.428 H 461.417 V 264.812 H 186.583 Z"
         id="path82"
         inkscape:connector-curvature="0" /></clipPath><clipPath
       clipPathUnits="userSpaceOnUse"
       id="clipPath96"><path
         d="m 304.646,277.119 h 63.543 v -7.1 h -63.543 z"
         id="path98"
         inkscape:connector-curvature="0" /></clipPath><linearGradient
       x1="0"
       y1="0"
       x2="1"
       y2="0"
       gradientUnits="userSpaceOnUse"
       gradientTransform="matrix(63.543945,0,0,-63.543945,304.64551,273.56885)"
       spreadMethod="pad"
       id="linearGradient104"><stop
         style="stop-opacity:1;stop-color:#c2ebf6"
         offset="0"
         id="stop106" /><stop
         style="stop-opacity:1;stop-color:#c2ebf6"
         offset="0.100006"
         id="stop108-2" /><stop
         style="stop-opacity:1;stop-color:#daf3f7"
         offset="0.39478683"
         id="stop110-9" /><stop
         style="stop-opacity:1;stop-color:#daf3f7"
         offset="0.5"
         id="stop112-0" /><stop
         style="stop-opacity:1;stop-color:#daf3f7"
         offset="0.60521317"
         id="stop114" /><stop
         style="stop-opacity:1;stop-color:#c3ebf6"
         offset="0.899994"
         id="stop116" /><stop
         style="stop-opacity:1;stop-color:#c3ebf6"
         offset="1"
         id="stop118" /></linearGradient><linearGradient
       x1="0"
       y1="0"
       x2="1"
       y2="0"
       gradientUnits="userSpaceOnUse"
       gradientTransform="matrix(0,-37.262695,-37.262695,0,281.69873,320.35352)"
       spreadMethod="pad"
       id="linearGradient146"><stop
         style="stop-opacity:1;stop-color:#ebf7f8"
         offset="0"
         id="stop148" /><stop
         style="stop-opacity:1;stop-color:#cceef7"
         offset="0.74176"
         id="stop150" /><stop
         style="stop-opacity:1;stop-color:#c7edf6"
         offset="1"
         id="stop152-4" /></linearGradient><linearGradient
       x1="0"
       y1="0"
       x2="1"
       y2="0"
       gradientUnits="userSpaceOnUse"
       gradientTransform="matrix(0,-21.27832,-21.27832,0,281.69873,320.35352)"
       spreadMethod="pad"
       id="linearGradient168"><stop
         style="stop-opacity:1;stop-color:#f9f9f9"
         offset="0"
         id="stop170" /><stop
         style="stop-opacity:1;stop-color:#f9f9f9"
         offset="0.093399"
         id="stop172" /><stop
         style="stop-opacity:1;stop-color:#cceef7"
         offset="0.87664637"
         id="stop174" /><stop
         style="stop-opacity:1;stop-color:#cceef7"
         offset="1"
         id="stop176" /></linearGradient></defs><sodipodi:namedview
     pagecolor="#ffffff"
     bordercolor="#666666"
     borderopacity="1"
     objecttolerance="10"
     gridtolerance="10"
     guidetolerance="10"
     inkscape:pageopacity="0"
     inkscape:pageshadow="2"
     inkscape:window-width="1536"
     inkscape:window-height="801"
     id="namedview4"
     showgrid="false"
     inkscape:zoom="11.125147"
     inkscape:cx="13.213276"
     inkscape:cy="11.914317"
     inkscape:window-x="1528"
     inkscape:window-y="123"
     inkscape:window-maximized="1"
     inkscape:current-layer="g10"
     fit-margin-top="0"
     fit-margin-left="0"
     fit-margin-right="0"
     fit-margin-bottom="0" /><g
     id="g10"
     inkscape:groupmode="layer"
     inkscape:label="24px_activity_icons"
     transform="matrix(1.25,0,0,-1.25,4.2159046,33.582469)"><g
       transform="matrix(0.50241532,0,0,-0.50831297,-8.316802,36.194929)"
       style="display:inline"
       id="g5413"><path
         inkscape:connector-curvature="0"
         inkscape:export-ydpi="34.641003"
         inkscape:export-xdpi="34.641003"
         inkscape:export-filename="C:\Users\juacas\Pictures\edicion\WEB\QUESTOURnament_simple_podium.gif.png"
         id="path5016"
         style="fill:#afafde;fill-rule:evenodd;stroke:none"
         d="M 9.8406202,50.261211 21.105279,54.725861 51.602289,42.633424 39.767385,40.067839 Z" /><path
         inkscape:connector-curvature="0"
         inkscape:export-ydpi="34.641003"
         inkscape:export-xdpi="34.641003"
         inkscape:export-filename="C:\Users\juacas\Pictures\edicion\WEB\QUESTOURnament_simple_podium.gif.png"
         id="path5018"
         style="fill:#353564;fill-rule:evenodd;stroke:none"
         d="M 9.8406202,34.529015 V 50.261211 L 39.767385,40.067839 V 27.282494 Z" /><path
         inkscape:connector-curvature="0"
         inkscape:export-ydpi="34.641003"
         inkscape:export-xdpi="34.641003"
         inkscape:export-filename="C:\Users\juacas\Pictures\edicion\WEB\QUESTOURnament_simple_podium.gif.png"
         id="path5020"
         style="fill:#e9e9ff;fill-rule:evenodd;stroke:none"
         d="m 39.767385,27.282494 11.834904,1.333672 V 42.633424 L 39.767385,40.067839 Z" /><path
         inkscape:connector-curvature="0"
         inkscape:export-ydpi="34.641003"
         inkscape:export-xdpi="34.641003"
         inkscape:export-filename="C:\Users\juacas\Pictures\edicion\WEB\QUESTOURnament_simple_podium.gif.png"
         id="path5036"
         style="fill:#e9e9ff;fill-rule:evenodd;stroke:none"
         d="m 30.899191,18.352779 13.639734,0.165213 V 30.594424 L 30.899191,29.200743 Z" /><path
         inkscape:connector-curvature="0"
         inkscape:export-ydpi="34.641003"
         inkscape:export-xdpi="34.641003"
         inkscape:export-filename="C:\Users\juacas\Pictures\edicion\WEB\QUESTOURnament_simple_podium.gif.png"
         id="path5038"
         style="fill:#353564;fill-rule:evenodd;stroke:none"
         d="M 18.130379,20.699323 V 32.535378 L 30.899191,29.200741 V 18.352779 Z" /><g
         transform="translate(-8.8388348,-53.033009)"
         inkscape:export-ydpi="34.641003"
         inkscape:export-xdpi="34.641003"
         inkscape:export-filename="C:\Users\juacas\Pictures\edicion\WEB\QUESTOURnament_simple_podium.gif.png"
         style="fill:#d98484;fill-opacity:1"
         id="g8552"><path
           inkscape:connector-curvature="0"
           d="M 18.679455,87.562024 29.944114,90.119051 60.441124,81.649175 48.60622,80.315503 Z"
           style="fill:#d98484;fill-opacity:1;fill-rule:evenodd;stroke:none"
           id="path5022"
           inkscape:export-filename="C:\Users\juacas\Pictures\edicion\WEB\QUESTOURnament_Big_podium.png"
           inkscape:export-xdpi="512.60999"
           inkscape:export-ydpi="512.60999" /><path
           inkscape:connector-curvature="0"
           d="M 26.969214,73.732332 40.41229,74.207426 53.37776,71.550997 39.738026,71.385785 Z"
           style="fill:#d98484;fill-opacity:1;fill-rule:evenodd;stroke:none"
           id="path5040"
           inkscape:export-filename="C:\Users\juacas\Pictures\edicion\WEB\QUESTOURnament_Big_podium.png"
           inkscape:export-xdpi="512.60999"
           inkscape:export-ydpi="512.60999" /></g><path
         inkscape:connector-curvature="0"
         inkscape:export-ydpi="34.641003"
         inkscape:export-xdpi="34.641003"
         inkscape:export-filename="C:\Users\juacas\Pictures\edicion\WEB\QUESTOURnament_simple_podium.gif.png"
         id="path5042"
         style="fill:#afafde;fill-rule:evenodd;stroke:none"
         d="M 18.130379,32.535378 31.573455,34.488173 44.538925,30.59442 30.899191,29.200741 Z" /><g
         transform="translate(-8.8388348,-53.033009)"
         inkscape:export-ydpi="34.641003"
         inkscape:export-xdpi="34.641003"
         inkscape:export-filename="C:\Users\juacas\Pictures\edicion\WEB\QUESTOURnament_simple_podium.gif.png"
         style="fill:#b22222;fill-opacity:1"
         id="g8544"><path
           inkscape:connector-curvature="0"
           d="M 29.944114,90.119051 V 107.75887 L 60.441124,95.666433 V 81.649175 Z"
           style="fill:#b22222;fill-opacity:1;fill-rule:evenodd;stroke:none"
           id="path5024"
           inkscape:export-filename="C:\Users\juacas\Pictures\edicion\WEB\QUESTOURnament_Big_podium.png"
           inkscape:export-xdpi="512.60999"
           inkscape:export-ydpi="512.60999" /><path
           inkscape:connector-curvature="0"
           d="M 40.41229,74.207426 V 87.521182 L 53.37776,83.627429 V 71.550997 Z"
           style="fill:#b22222;fill-opacity:1;fill-rule:evenodd;stroke:none"
           id="path5044"
           inkscape:export-filename="C:\Users\juacas\Pictures\edicion\WEB\QUESTOURnament_Big_podium.png"
           inkscape:export-xdpi="512.60999"
           inkscape:export-ydpi="512.60999" /></g><g
         transform="translate(-8.8388348,-53.033009)"
         inkscape:export-ydpi="34.641003"
         inkscape:export-xdpi="34.641003"
         inkscape:export-filename="C:\Users\juacas\Pictures\edicion\WEB\QUESTOURnament_simple_podium.gif.png"
         style="fill:#cd5c5c"
         id="g8548"><path
           inkscape:connector-curvature="0"
           d="m 18.679455,87.562024 11.264659,2.557027 v 17.639819 l -11.264659,-4.46465 z"
           style="fill:#cd5c5c;fill-rule:evenodd;stroke:none"
           id="path5026"
           inkscape:export-filename="C:\Users\juacas\Pictures\edicion\WEB\QUESTOURnament_Big_podium.png"
           inkscape:export-xdpi="512.60999"
           inkscape:export-ydpi="512.60999" /><path
           inkscape:connector-curvature="0"
           d="M 26.969214,73.732332 40.41229,74.207426 V 87.521182 L 26.969214,85.568387 Z"
           style="fill:#cd5c5c;fill-rule:evenodd;stroke:none"
           id="path5046"
           inkscape:export-filename="C:\Users\juacas\Pictures\edicion\WEB\QUESTOURnament_Big_podium.png"
           inkscape:export-xdpi="512.60999"
           inkscape:export-ydpi="512.60999" /></g><g
         inkscape:export-ydpi="34.641003"
         inkscape:export-xdpi="34.641003"
         inkscape:export-filename="C:\Users\juacas\Pictures\edicion\WEB\QUESTOURnament_simple_podium.gif.png"
         style="fill:#ffffff;fill-opacity:1"
         transform="matrix(1.3865543,0,0,1.3360104,-66.941475,-98.220752)"
         id="g5057"><path
           inkscape:connector-curvature="0"
           id="path3976"
           d="m 75.805753,97.094879 c 0,0 -0.737123,0.221544 -0.737123,0.221544 0,0 -0.03167,-4.358779 -0.03167,-4.358779 -0.181464,0.202243 -0.421148,0.419064 -0.720273,0.651183 -0.301588,0.234039 -0.574851,0.421946 -0.819163,0.562997 0,0 -0.0084,-0.683796 -0.0084,-0.683796 0.43858,-0.289091 0.817047,-0.601212 1.137402,-0.936912 0.317722,-0.33295 0.540646,-0.635431 0.670447,-0.90896 0,0 0.482074,-0.102842 0.482074,-0.102842 0,0 0.02675,5.555565 0.02675,5.555565"
           style="font-style:normal;font-weight:normal;font-size:8px;font-family:'Bitstream Vera Sans';fill:#ffffff;fill-opacity:1;stroke:none" /><path
           inkscape:connector-curvature="0"
           id="path3979"
           d="m 79.352559,103.58443 c 0,0 0.627201,-0.34617 0.627201,-0.34617 0.06791,0.30625 0.186037,0.4959 0.353707,0.56968 0.166552,0.0733 0.369166,0.057 0.60722,-0.0479 0.28006,-0.12338 0.515826,-0.32085 0.708552,-0.59221 0.191705,-0.26993 0.289373,-0.54302 0.293774,-0.82072 0.0042,-0.26536 -0.07962,-0.44829 -0.252353,-0.54898 -0.174003,-0.10141 -0.398938,-0.0963 -0.675811,0.0166 -0.11372,0.0464 -0.256197,0.12629 -0.427791,0.24011 0,0 0.0736,-0.54881 0.0736,-0.54881 0.04056,-0.012 0.07313,-0.0225 0.0979,-0.0325 0.257462,-0.10307 0.488134,-0.26053 0.692767,-0.47215 0.203393,-0.21032 0.306686,-0.45075 0.310791,-0.7226 0.0033,-0.21565 -0.06718,-0.366735 -0.21207,-0.453368 -0.145733,-0.08715 -0.33669,-0.08693 -0.573646,0.0016 -0.236629,0.08843 -0.436097,0.236248 -0.597493,0.443678 -0.162112,0.20833 -0.267923,0.46934 -0.316869,0.78223 0,0 -0.628935,0.13638 -0.628935,0.13638 0.08077,-0.43872 0.259488,-0.82224 0.534451,-1.14857 0.272884,-0.32386 0.607527,-0.557553 1.001484,-0.701489 0.268645,-0.09814 0.513052,-0.130916 0.733664,-0.09929 0.218765,0.0314 0.38377,0.122446 0.495946,0.272742 0.111575,0.149512 0.165295,0.331947 0.161608,0.547667 -0.0035,0.20466 -0.06108,0.41217 -0.172966,0.62318 -0.112199,0.21157 -0.277044,0.41046 -0.495414,0.59718 0.280529,-0.049 0.495133,-0.003 0.645187,0.13642 0.149052,0.13861 0.220514,0.35831 0.215139,0.65931 -0.0073,0.40601 -0.160648,0.81359 -0.462108,1.22616 -0.30403,0.41608 -0.689051,0.72957 -1.158761,0.94035 -0.430177,0.19302 -0.790954,0.23026 -1.080057,0.10851 -0.292454,-0.12317 -0.459509,-0.37877 -0.498746,-0.76694 0,0 2.9e-5,-1.9e-4 2.9e-5,-1.9e-4"
           style="font-style:normal;font-weight:normal;font-size:8px;font-family:'Bitstream Vera Sans';fill:#ffffff;fill-opacity:1;stroke:none" /><path
           inkscape:connector-curvature="0"
           id="path3982"
           d="m 70.099271,108.58263 c 0,0 0.01607,0.65091 0.01607,0.65091 0,0 -4.823285,2.17387 -4.823285,2.17387 -0.01402,-0.16971 0.01602,-0.35253 0.09102,-0.54856 0.12026,-0.32153 0.31876,-0.67269 0.594602,-1.05228 0.274197,-0.37733 0.670161,-0.84527 1.184387,-1.4004 0.785766,-0.84949 1.306681,-1.47402 1.57257,-1.88367 0.264381,-0.40731 0.392324,-0.7426 0.38497,-1.00792 -0.0078,-0.27885 -0.138386,-0.46679 -0.393551,-0.56401 -0.257303,-0.098 -0.591212,-0.0702 -1.003624,0.0854 -0.441092,0.16641 -0.794181,0.40606 -1.056377,0.71881 -0.263757,0.31464 -0.39098,0.6599 -0.380473,1.03368 0,0 -0.986469,0.30946 -0.986469,0.30946 0.04515,-0.59238 0.283967,-1.1221 0.713263,-1.58481 0.425053,-0.45814 0.997871,-0.819 1.710934,-1.08201 0.705786,-0.26034 1.258982,-0.30871 1.665796,-0.15055 0.401414,0.15607 0.605659,0.45679 0.616679,0.90271 0.0056,0.22631 -0.04563,0.471 -0.153709,0.73465 -0.108247,0.26412 -0.291985,0.5711 -0.552044,0.92207 -0.261611,0.35307 -0.70189,0.87407 -1.32661,1.56916 -0.529009,0.58603 -0.871696,0.97911 -1.023431,1.17416 -0.152271,0.19573 -0.277598,0.38072 -0.375771,0.55476 0,0 3.525061,-1.55538 3.525061,-1.55538"
           style="font-style:normal;font-weight:normal;font-size:8px;font-family:'Bitstream Vera Sans';fill:#ffffff;fill-opacity:1;stroke:none" /></g></g></g></svg>